<mxfile host="app.diagrams.net" modified="2020-08-16T17:53:10.499Z" agent="5.0 (Windows NT 10.0; Win64; x64) AppleWebKit/537.36 (KHTML, like Gecko) Chrome/84.0.4147.125 Safari/537.36" etag="Zz9KvqW9zCaN4wwYM3BZ" version="13.6.2" type="github">
  <diagram id="KFHT1xv7hrLZdYP2vJop" name="SingUP">
    <mxGraphModel dx="739" dy="1128" grid="1" gridSize="10" guides="0" tooltips="1" connect="0" arrows="0" fold="1" page="0" pageScale="1" pageWidth="827" pageHeight="1169" math="0" shadow="0">
      <root>
        <mxCell id="0" />
        <mxCell id="1" parent="0" />
        <mxCell id="jevTY8jZ-pcgP-MfwE-D-48" value="" style="whiteSpace=wrap;html=1;fillColor=#6666FF;gradientColor=none;sketch=1;" parent="1" vertex="1">
          <mxGeometry x="288" y="-244" width="372" height="160" as="geometry" />
        </mxCell>
        <mxCell id="jevTY8jZ-pcgP-MfwE-D-30" value="" style="whiteSpace=wrap;html=1;fillColor=#FFFF66;gradientColor=none;sketch=1;labelBorderColor=none;labelBackgroundColor=#FFFF66;" parent="1" vertex="1">
          <mxGeometry x="687" y="241" width="228" height="172" as="geometry" />
        </mxCell>
        <mxCell id="jevTY8jZ-pcgP-MfwE-D-1" value="MongoDB" style="whiteSpace=wrap;html=1;labelBorderColor=none;sketch=1;fillColor=#D1D1D1;" parent="1" vertex="1">
          <mxGeometry x="510" y="-334" width="120" height="60" as="geometry" />
        </mxCell>
        <mxCell id="jevTY8jZ-pcgP-MfwE-D-6" value="Express" style="whiteSpace=wrap;html=1;sketch=1;fillColor=#D1D1D1;" parent="1" vertex="1">
          <mxGeometry x="470.5" y="546" width="120" height="60" as="geometry" />
        </mxCell>
        <mxCell id="jevTY8jZ-pcgP-MfwE-D-7" value="" style="whiteSpace=wrap;html=1;sketch=1;fillColor=#66CC00;" parent="1" vertex="1">
          <mxGeometry x="288" y="241" width="367" height="190" as="geometry" />
        </mxCell>
        <mxCell id="jevTY8jZ-pcgP-MfwE-D-8" value="Validator" style="whiteSpace=wrap;html=1;sketch=1;fillColor=#D1D1D1;" parent="1" vertex="1">
          <mxGeometry x="100" y="420" width="120" height="60" as="geometry" />
        </mxCell>
        <mxCell id="jevTY8jZ-pcgP-MfwE-D-9" value="BCrypt" style="whiteSpace=wrap;html=1;sketch=1;fillColor=#D1D1D1;" parent="1" vertex="1">
          <mxGeometry x="310" y="-334" width="120" height="60" as="geometry" />
        </mxCell>
        <mxCell id="jevTY8jZ-pcgP-MfwE-D-20" value="" style="edgeStyle=none;orthogonalLoop=1;jettySize=auto;html=1;curved=1;sketch=1;" parent="1" edge="1">
          <mxGeometry relative="1" as="geometry">
            <mxPoint x="530.5" y="517" as="sourcePoint" />
            <mxPoint x="530.5" y="547" as="targetPoint" />
          </mxGeometry>
        </mxCell>
        <mxCell id="jevTY8jZ-pcgP-MfwE-D-25" value="" style="edgeStyle=none;orthogonalLoop=1;jettySize=auto;html=1;curved=1;sketch=1;" parent="1" source="jevTY8jZ-pcgP-MfwE-D-17" edge="1">
          <mxGeometry relative="1" as="geometry">
            <mxPoint x="530.5" y="418" as="targetPoint" />
          </mxGeometry>
        </mxCell>
        <mxCell id="jevTY8jZ-pcgP-MfwE-D-17" value="ExpressRouteAdapter" style="whiteSpace=wrap;html=1;sketch=1;fillColor=#D1D1D1;" parent="1" vertex="1">
          <mxGeometry x="470.5" y="456" width="120" height="60" as="geometry" />
        </mxCell>
        <mxCell id="jevTY8jZ-pcgP-MfwE-D-18" value="" style="whiteSpace=wrap;html=1;aspect=fixed;sketch=1;fillColor=#00FFFF;" parent="1" vertex="1">
          <mxGeometry x="83" y="241" width="147" height="147" as="geometry" />
        </mxCell>
        <mxCell id="jevTY8jZ-pcgP-MfwE-D-24" value="" style="edgeStyle=none;orthogonalLoop=1;jettySize=auto;html=1;curved=1;sketch=1;" parent="1" source="jevTY8jZ-pcgP-MfwE-D-19" target="jevTY8jZ-pcgP-MfwE-D-23" edge="1">
          <mxGeometry relative="1" as="geometry" />
        </mxCell>
        <mxCell id="jevTY8jZ-pcgP-MfwE-D-35" style="edgeStyle=none;orthogonalLoop=1;jettySize=auto;html=1;curved=1;sketch=1;" parent="1" source="jevTY8jZ-pcgP-MfwE-D-19" target="jevTY8jZ-pcgP-MfwE-D-33" edge="1">
          <mxGeometry relative="1" as="geometry">
            <Array as="points">
              <mxPoint x="668" y="284" />
            </Array>
          </mxGeometry>
        </mxCell>
        <mxCell id="jevTY8jZ-pcgP-MfwE-D-36" value="" style="edgeStyle=none;orthogonalLoop=1;jettySize=auto;html=1;curved=1;sketch=1;" parent="1" source="jevTY8jZ-pcgP-MfwE-D-19" target="jevTY8jZ-pcgP-MfwE-D-22" edge="1">
          <mxGeometry relative="1" as="geometry" />
        </mxCell>
        <mxCell id="jevTY8jZ-pcgP-MfwE-D-19" value="SignUpController" style="whiteSpace=wrap;html=1;sketch=1;" parent="1" vertex="1">
          <mxGeometry x="470.5" y="254" width="120" height="60" as="geometry" />
        </mxCell>
        <mxCell id="jevTY8jZ-pcgP-MfwE-D-22" value="Controller" style="whiteSpace=wrap;html=1;dashed=1;A;sketch=1;" parent="1" vertex="1">
          <mxGeometry x="470.5" y="357" width="120" height="60" as="geometry" />
        </mxCell>
        <mxCell id="jevTY8jZ-pcgP-MfwE-D-23" value="EmailValidator" style="whiteSpace=wrap;html=1;dashed=1;A;sketch=1;" parent="1" vertex="1">
          <mxGeometry x="320.5" y="254" width="120" height="60" as="geometry" />
        </mxCell>
        <mxCell id="jevTY8jZ-pcgP-MfwE-D-26" value="Utils" style="text;html=1;align=center;verticalAlign=middle;resizable=0;points=[];autosize=1;sketch=1;" parent="1" vertex="1">
          <mxGeometry x="203" y="224" width="33" height="18" as="geometry" />
        </mxCell>
        <mxCell id="jevTY8jZ-pcgP-MfwE-D-29" value="" style="edgeStyle=none;orthogonalLoop=1;jettySize=auto;html=1;curved=1;sketch=1;" parent="1" source="jevTY8jZ-pcgP-MfwE-D-27" target="jevTY8jZ-pcgP-MfwE-D-23" edge="1">
          <mxGeometry relative="1" as="geometry" />
        </mxCell>
        <mxCell id="jevTY8jZ-pcgP-MfwE-D-37" value="" style="edgeStyle=none;orthogonalLoop=1;jettySize=auto;html=1;curved=1;sketch=1;" parent="1" source="jevTY8jZ-pcgP-MfwE-D-27" target="jevTY8jZ-pcgP-MfwE-D-8" edge="1">
          <mxGeometry relative="1" as="geometry" />
        </mxCell>
        <mxCell id="jevTY8jZ-pcgP-MfwE-D-27" value="EmailValidatorAdapter" style="whiteSpace=wrap;html=1;fillColor=#ffffff;gradientColor=none;sketch=1;" parent="1" vertex="1">
          <mxGeometry x="93" y="254" width="131" height="60" as="geometry" />
        </mxCell>
        <mxCell id="jevTY8jZ-pcgP-MfwE-D-28" style="edgeStyle=none;orthogonalLoop=1;jettySize=auto;html=1;exitX=0;exitY=0.5;exitDx=0;exitDy=0;curved=1;sketch=1;" parent="1" source="jevTY8jZ-pcgP-MfwE-D-18" target="jevTY8jZ-pcgP-MfwE-D-18" edge="1">
          <mxGeometry relative="1" as="geometry" />
        </mxCell>
        <mxCell id="jevTY8jZ-pcgP-MfwE-D-31" value="Presentation" style="text;html=1;align=center;verticalAlign=middle;resizable=0;points=[];autosize=1;sketch=1;" parent="1" vertex="1">
          <mxGeometry x="578" y="220" width="77" height="18" as="geometry" />
        </mxCell>
        <mxCell id="jevTY8jZ-pcgP-MfwE-D-32" value="Domain" style="text;html=1;align=center;verticalAlign=middle;resizable=0;points=[];autosize=1;sketch=1;" parent="1" vertex="1">
          <mxGeometry x="864" y="220" width="51" height="18" as="geometry" />
        </mxCell>
        <mxCell id="jevTY8jZ-pcgP-MfwE-D-33" value="AddCount" style="whiteSpace=wrap;html=1;fillColor=#ffffff;gradientColor=none;dashed=1;sketch=1;" parent="1" vertex="1">
          <mxGeometry x="737" y="292" width="120" height="60" as="geometry" />
        </mxCell>
        <mxCell id="jevTY8jZ-pcgP-MfwE-D-38" style="edgeStyle=none;orthogonalLoop=1;jettySize=auto;html=1;exitX=0.25;exitY=1;exitDx=0;exitDy=0;curved=1;sketch=1;" parent="1" source="jevTY8jZ-pcgP-MfwE-D-9" target="jevTY8jZ-pcgP-MfwE-D-9" edge="1">
          <mxGeometry relative="1" as="geometry" />
        </mxCell>
        <mxCell id="jevTY8jZ-pcgP-MfwE-D-39" value="" style="whiteSpace=wrap;html=1;fillColor=#FF66FF;gradientColor=none;sketch=1;" parent="1" vertex="1">
          <mxGeometry x="288" y="-40" width="372" height="190" as="geometry" />
        </mxCell>
        <mxCell id="jevTY8jZ-pcgP-MfwE-D-40" value="EmailValidator" style="whiteSpace=wrap;html=1;fillColor=#ffffff;gradientColor=none;dashed=1;sketch=1;" parent="1" vertex="1">
          <mxGeometry x="320" y="-10" width="120" height="60" as="geometry" />
        </mxCell>
        <mxCell id="jevTY8jZ-pcgP-MfwE-D-41" value="AddUserRepo" style="whiteSpace=wrap;html=1;fillColor=#ffffff;gradientColor=none;dashed=1;sketch=1;" parent="1" vertex="1">
          <mxGeometry x="520" y="-10" width="120" height="60" as="geometry" />
        </mxCell>
        <mxCell id="jevTY8jZ-pcgP-MfwE-D-44" style="edgeStyle=none;orthogonalLoop=1;jettySize=auto;html=1;exitX=0;exitY=0.5;exitDx=0;exitDy=0;curved=1;sketch=1;" parent="1" source="jevTY8jZ-pcgP-MfwE-D-42" edge="1">
          <mxGeometry relative="1" as="geometry">
            <mxPoint x="370" y="52" as="targetPoint" />
            <Array as="points">
              <mxPoint x="370" y="100" />
            </Array>
          </mxGeometry>
        </mxCell>
        <mxCell id="jevTY8jZ-pcgP-MfwE-D-46" style="edgeStyle=none;orthogonalLoop=1;jettySize=auto;html=1;exitX=1;exitY=0.5;exitDx=0;exitDy=0;curved=1;sketch=1;" parent="1" source="jevTY8jZ-pcgP-MfwE-D-42" target="jevTY8jZ-pcgP-MfwE-D-41" edge="1">
          <mxGeometry relative="1" as="geometry">
            <Array as="points">
              <mxPoint x="580" y="100" />
            </Array>
          </mxGeometry>
        </mxCell>
        <mxCell id="jevTY8jZ-pcgP-MfwE-D-47" style="edgeStyle=none;orthogonalLoop=1;jettySize=auto;html=1;entryX=0.25;entryY=0;entryDx=0;entryDy=0;curved=1;sketch=1;" parent="1" source="jevTY8jZ-pcgP-MfwE-D-42" target="jevTY8jZ-pcgP-MfwE-D-33" edge="1">
          <mxGeometry relative="1" as="geometry">
            <mxPoint x="730" y="200" as="targetPoint" />
            <Array as="points">
              <mxPoint x="474" y="200" />
              <mxPoint x="767" y="200" />
            </Array>
          </mxGeometry>
        </mxCell>
        <mxCell id="jevTY8jZ-pcgP-MfwE-D-42" value="DbAddAcount" style="whiteSpace=wrap;html=1;fillColor=#ffffff;gradientColor=none;sketch=1;" parent="1" vertex="1">
          <mxGeometry x="414" y="70" width="120" height="60" as="geometry" />
        </mxCell>
        <mxCell id="jevTY8jZ-pcgP-MfwE-D-49" value="Data" style="text;html=1;align=center;verticalAlign=middle;resizable=0;points=[];autosize=1;sketch=1;" parent="1" vertex="1">
          <mxGeometry x="620" y="-60" width="40" height="20" as="geometry" />
        </mxCell>
        <mxCell id="jevTY8jZ-pcgP-MfwE-D-50" value="Infra" style="text;html=1;align=center;verticalAlign=middle;resizable=0;points=[];autosize=1;sketch=1;" parent="1" vertex="1">
          <mxGeometry x="630" y="-264" width="40" height="20" as="geometry" />
        </mxCell>
        <mxCell id="jevTY8jZ-pcgP-MfwE-D-54" style="edgeStyle=none;orthogonalLoop=1;jettySize=auto;html=1;curved=1;sketch=1;" parent="1" source="jevTY8jZ-pcgP-MfwE-D-51" target="jevTY8jZ-pcgP-MfwE-D-9" edge="1">
          <mxGeometry relative="1" as="geometry" />
        </mxCell>
        <mxCell id="jevTY8jZ-pcgP-MfwE-D-53" style="edgeStyle=none;orthogonalLoop=1;jettySize=auto;html=1;curved=1;sketch=1;" parent="1" source="jevTY8jZ-pcgP-MfwE-D-52" target="jevTY8jZ-pcgP-MfwE-D-1" edge="1">
          <mxGeometry relative="1" as="geometry" />
        </mxCell>
        <mxCell id="jevTY8jZ-pcgP-MfwE-D-52" value="AddUserMongoRepo" style="whiteSpace=wrap;html=1;fillColor=#ffffff;gradientColor=none;sketch=1;" parent="1" vertex="1">
          <mxGeometry x="500" y="-194" width="120" height="60" as="geometry" />
        </mxCell>
        <mxCell id="jevTY8jZ-pcgP-MfwE-D-51" value="BcryptAdapter" style="whiteSpace=wrap;html=1;fillColor=#ffffff;gradientColor=none;sketch=1;" parent="1" vertex="1">
          <mxGeometry x="310" y="-194" width="120" height="60" as="geometry" />
        </mxCell>
        <mxCell id="jevTY8jZ-pcgP-MfwE-D-57" style="edgeStyle=none;orthogonalLoop=1;jettySize=auto;html=1;curved=1;sketch=1;" parent="1" target="jevTY8jZ-pcgP-MfwE-D-40" edge="1">
          <mxGeometry relative="1" as="geometry">
            <mxPoint x="380" y="-130" as="sourcePoint" />
            <mxPoint x="290" y="-80" as="targetPoint" />
          </mxGeometry>
        </mxCell>
        <mxCell id="jevTY8jZ-pcgP-MfwE-D-58" style="edgeStyle=none;orthogonalLoop=1;jettySize=auto;html=1;curved=1;sketch=1;" parent="1" edge="1">
          <mxGeometry relative="1" as="geometry">
            <mxPoint x="560" y="-130" as="sourcePoint" />
            <mxPoint x="559.9987301587302" y="-11" as="targetPoint" />
          </mxGeometry>
        </mxCell>
      </root>
    </mxGraphModel>
  </diagram>
</mxfile>
